<svg viewBox="0 0 900 650" xmlns="http://www.w3.org/2000/svg" font-family="Arial, sans-serif">
  <defs>
    <filter id="sh"><feDropShadow dx="2" dy="3" stdDeviation="4" flood-opacity="0.4"/></filter>
    <filter id="sh2"><feDropShadow dx="1" dy="2" stdDeviation="2" flood-opacity="0.3"/></filter>
    <radialGradient id="ledGreen" cx="40%" cy="35%"><stop offset="0%" stop-color="#afffaf"/><stop offset="100%" stop-color="#00b000"/></radialGradient>
    <radialGradient id="ledRed" cx="40%" cy="35%"><stop offset="0%" stop-color="#ffaaaa"/><stop offset="100%" stop-color="#cc0000"/></radialGradient>
    <linearGradient id="stmPcb" x1="0%" y1="0%" x2="100%" y2="100%"><stop offset="0%" stop-color="#1a4a2a"/><stop offset="100%" stop-color="#0d3018"/></linearGradient>
    <linearGradient id="servoGrad" x1="0%" y1="0%" x2="0%" y2="100%"><stop offset="0%" stop-color="#c8c8c8"/><stop offset="100%" stop-color="#888"/></linearGradient>
    <linearGradient id="maxGrad" x1="0%" y1="0%" x2="0%" y2="100%"><stop offset="0%" stop-color="#2a2a4a"/><stop offset="100%" stop-color="#1a1a30"/></linearGradient>
    <linearGradient id="usGrad" x1="0%" y1="0%" x2="0%" y2="100%"><stop offset="0%" stop-color="#1a3a5a"/><stop offset="100%" stop-color="#0d2035"/></linearGradient>
  </defs>
  <rect width="900" height="650" fill="#f0f0f0"/>
  <rect x="0" y="0" width="900" height="36" fill="#1e293b"/>
  <text x="450" y="14" text-anchor="middle" fill="white" font-size="11" font-weight="bold">Smart Parking System — Circuit Diagram</text>
  <text x="450" y="28" text-anchor="middle" fill="#94a3b8" font-size="8.5">STM32 F446RE Nucleo · Yaswanth Chlliboina · github.com/Yaswanth-Ch-24</text>

  <!-- ══ STM32 CENTER ══ -->
  <rect x="320" y="130" width="270" height="370" rx="8" fill="url(#stmPcb)" filter="url(#sh)"/>
  <rect x="326" y="136" width="258" height="358" rx="6" fill="none" stroke="#2d6a3f" stroke-width="1.5"/>
  <rect x="385" y="133" width="50" height="18" rx="3" fill="#888" stroke="#555" stroke-width="1"/>
  <text x="410" y="145" text-anchor="middle" fill="white" font-size="7" font-weight="bold">USB</text>
  <rect x="380" y="320" width="80" height="75" rx="4" fill="#1a5c2e"/>
  <text x="420" y="362" text-anchor="middle" fill="white" font-size="20" font-weight="bold" font-style="italic">ST</text>
  <rect x="375" y="230" width="80" height="75" rx="3" fill="#111" stroke="#333" stroke-width="1.5"/>
  <text x="415" y="265" text-anchor="middle" fill="#aaa" font-size="7">STM32</text>
  <text x="415" y="277" text-anchor="middle" fill="#aaa" font-size="7">F446RE</text>
  <!-- Header pins -->
  <g fill="#c0c0c0" stroke="#888" stroke-width="0.5">
    <rect x="325" y="160" width="9" height="9" rx="1"/><rect x="325" y="173" width="9" height="9" rx="1"/>
    <rect x="325" y="186" width="9" height="9" rx="1"/><rect x="325" y="199" width="9" height="9" rx="1"/>
    <rect x="325" y="212" width="9" height="9" rx="1"/><rect x="325" y="225" width="9" height="9" rx="1"/>
    <rect x="325" y="238" width="9" height="9" rx="1"/><rect x="325" y="251" width="9" height="9" rx="1"/>
    <rect x="325" y="264" width="9" height="9" rx="1"/><rect x="325" y="277" width="9" height="9" rx="1"/>
    <rect x="325" y="290" width="9" height="9" rx="1"/><rect x="325" y="303" width="9" height="9" rx="1"/>
    <rect x="325" y="316" width="9" height="9" rx="1"/>
    <rect x="575" y="160" width="9" height="9" rx="1"/><rect x="575" y="173" width="9" height="9" rx="1"/>
    <rect x="575" y="186" width="9" height="9" rx="1"/><rect x="575" y="199" width="9" height="9" rx="1"/>
    <rect x="575" y="212" width="9" height="9" rx="1"/><rect x="575" y="225" width="9" height="9" rx="1"/>
    <rect x="575" y="238" width="9" height="9" rx="1"/>
  </g>
  <g fill="#4ade80" font-size="7" font-family="'Courier New', monospace">
    <text x="338" y="167">PA0 TRIG-IN</text><text x="338" y="180">PA1 ECHO-IN</text>
    <text x="338" y="193">PA4 TRIG-OUT</text><text x="338" y="206">PB0 ECHO-OUT</text>
    <text x="338" y="219">PA8 SERVO-1</text><text x="338" y="232">PA9 SERVO-2</text>
    <text x="338" y="245">PC3 SPI-DIN</text><text x="338" y="258">PB10 SPI-CLK</text>
    <text x="338" y="271">PB12 SPI-CS</text>
  </g>
  <g fill="#4ade80" font-size="7" font-family="'Courier New', monospace" text-anchor="end">
    <text x="572" y="167">PC4 GRN1</text><text x="572" y="180">PC5 RED1</text>
    <text x="572" y="193">PB13 GRN2</text><text x="572" y="206">PB14 RED2</text>
    <text x="572" y="219">PB15 GRN3</text><text x="572" y="232">PD2 RED3</text>
  </g>
  <text x="455" y="488" text-anchor="middle" fill="#4ade80" font-size="8" font-weight="bold" font-family="'Courier New', monospace">NUCLEO-F446RE</text>

  <!-- ══ HC-SR04 ENTRY (top-left) ══ -->
  <g filter="url(#sh2)">
    <rect x="40" y="75" width="170" height="80" rx="6" fill="url(#usGrad)"/>
    <rect x="46" y="81" width="158" height="68" rx="4" fill="none" stroke="#4a7aaf" stroke-width="1" stroke-dasharray="3,2"/>
    <!-- Two transducers -->
    <circle cx="90" cy="118" r="22" fill="#1a2a3a" stroke="#3a5a7a" stroke-width="2"/>
    <circle cx="90" cy="118" r="16" fill="#0d1a24" stroke="#2a4a6a" stroke-width="1.5"/>
    <circle cx="90" cy="118" r="8" fill="#1a3a4a"/>
    <circle cx="150" cy="118" r="22" fill="#1a2a3a" stroke="#3a5a7a" stroke-width="2"/>
    <circle cx="150" cy="118" r="16" fill="#0d1a24" stroke="#2a4a6a" stroke-width="1.5"/>
    <circle cx="150" cy="118" r="8" fill="#1a3a4a"/>
    <!-- Ultrasonic waves -->
    <g fill="none" stroke="#60a5fa" stroke-width="1" opacity="0.6">
      <path d="M68,100 Q58,118 68,136"/><path d="M62,95 Q48,118 62,141"/>
      <path d="M172,100 Q182,118 172,136"/><path d="M178,95 Q192,118 178,141"/>
    </g>
    <!-- Header pins -->
    <g fill="#c0a000">
      <rect x="48" y="142" width="7" height="12" rx="1"/><rect x="62" y="142" width="7" height="12" rx="1"/>
      <rect x="76" y="142" width="7" height="12" rx="1"/><rect x="90" y="142" width="7" height="12" rx="1"/>
    </g>
    <text x="51" y="164" fill="#93c5fd" font-size="6" text-anchor="middle">VCC</text>
    <text x="65" y="164" fill="#93c5fd" font-size="6" text-anchor="middle">TRIG</text>
    <text x="79" y="164" fill="#93c5fd" font-size="6" text-anchor="middle">ECHO</text>
    <text x="93" y="164" fill="#93c5fd" font-size="6" text-anchor="middle">GND</text>
  </g>
  <text x="125" y="70" text-anchor="middle" fill="#1e293b" font-size="9" font-weight="bold">HC-SR04 (Entry)</text>

  <!-- ══ HC-SR04 EXIT (mid-left) ══ -->
  <g filter="url(#sh2)">
    <rect x="40" y="230" width="170" height="80" rx="6" fill="url(#usGrad)"/>
    <rect x="46" y="236" width="158" height="68" rx="4" fill="none" stroke="#4a7aaf" stroke-width="1" stroke-dasharray="3,2"/>
    <circle cx="90" cy="273" r="22" fill="#1a2a3a" stroke="#3a5a7a" stroke-width="2"/>
    <circle cx="90" cy="273" r="16" fill="#0d1a24" stroke="#2a4a6a" stroke-width="1.5"/>
    <circle cx="90" cy="273" r="8" fill="#1a3a4a"/>
    <circle cx="150" cy="273" r="22" fill="#1a2a3a" stroke="#3a5a7a" stroke-width="2"/>
    <circle cx="150" cy="273" r="16" fill="#0d1a24" stroke="#2a4a6a" stroke-width="1.5"/>
    <circle cx="150" cy="273" r="8" fill="#1a3a4a"/>
    <g fill="none" stroke="#60a5fa" stroke-width="1" opacity="0.6">
      <path d="M68,255 Q58,273 68,291"/><path d="M172,255 Q182,273 172,291"/>
    </g>
    <g fill="#c0a000">
      <rect x="48" y="297" width="7" height="12" rx="1"/><rect x="62" y="297" width="7" height="12" rx="1"/>
      <rect x="76" y="297" width="7" height="12" rx="1"/><rect x="90" y="297" width="7" height="12" rx="1"/>
    </g>
    <text x="51" y="319" fill="#93c5fd" font-size="6" text-anchor="middle">VCC</text>
    <text x="65" y="319" fill="#93c5fd" font-size="6" text-anchor="middle">TRIG</text>
    <text x="79" y="319" fill="#93c5fd" font-size="6" text-anchor="middle">ECHO</text>
    <text x="93" y="319" fill="#93c5fd" font-size="6" text-anchor="middle">GND</text>
  </g>
  <text x="125" y="225" text-anchor="middle" fill="#1e293b" font-size="9" font-weight="bold">HC-SR04 (Exit)</text>

  <!-- ══ SG90 SERVO ENTRY (top-right) ══ -->
  <g filter="url(#sh2)">
    <rect x="705" y="75" width="155" height="85" rx="6" fill="url(#servoGrad)"/>
    <rect x="711" y="81" width="143" height="73" rx="4" fill="#aaa" stroke="#999" stroke-width="1"/>
    <!-- Motor body -->
    <rect x="718" y="87" width="90" height="60" rx="4" fill="#888" stroke="#777" stroke-width="1.5"/>
    <!-- Output shaft + horn -->
    <circle cx="762" cy="117" r="15" fill="#666" stroke="#555" stroke-width="2"/>
    <circle cx="762" cy="117" r="8" fill="#888"/>
    <rect x="762" y="95" width="5" height="18" rx="2" fill="#aaa" transform="rotate(-30 762 117)"/>
    <rect x="762" y="95" width="5" height="18" rx="2" fill="#aaa" transform="rotate(60 762 117)"/>
    <!-- Wire pigtail -->
    <rect x="818" y="97" width="35" height="30" rx="3" fill="#ddd" stroke="#bbb" stroke-width="1"/>
    <line x1="820" y1="105" x2="830" y2="105" stroke="#f44" stroke-width="3"/>
    <line x1="820" y1="115" x2="830" y2="115" stroke="#555" stroke-width="3"/>
    <line x1="820" y1="125" x2="830" y2="125" stroke="#ee8" stroke-width="3"/>
    <text x="835" y="108" fill="#c00" font-size="6">5V</text>
    <text x="835" y="118" fill="#333" font-size="6">GND</text>
    <text x="835" y="128" fill="#886" font-size="6">SIG</text>
  </g>
  <text x="782" y="70" text-anchor="middle" fill="#1e293b" font-size="9" font-weight="bold">SG90 Servo (Entry PA8)</text>

  <!-- ══ SG90 SERVO EXIT (right-mid) ══ -->
  <g filter="url(#sh2)">
    <rect x="705" y="225" width="155" height="85" rx="6" fill="url(#servoGrad)"/>
    <rect x="711" y="231" width="143" height="73" rx="4" fill="#aaa" stroke="#999" stroke-width="1"/>
    <rect x="718" y="237" width="90" height="60" rx="4" fill="#888" stroke="#777" stroke-width="1.5"/>
    <circle cx="762" cy="267" r="15" fill="#666" stroke="#555" stroke-width="2"/>
    <circle cx="762" cy="267" r="8" fill="#888"/>
    <rect x="762" y="245" width="5" height="18" rx="2" fill="#aaa" transform="rotate(30 762 267)"/>
    <rect x="762" y="245" width="5" height="18" rx="2" fill="#aaa" transform="rotate(-60 762 267)"/>
    <rect x="818" y="247" width="35" height="30" rx="3" fill="#ddd" stroke="#bbb" stroke-width="1"/>
    <line x1="820" y1="255" x2="830" y2="255" stroke="#f44" stroke-width="3"/>
    <line x1="820" y1="265" x2="830" y2="265" stroke="#555" stroke-width="3"/>
    <line x1="820" y1="275" x2="830" y2="275" stroke="#ee8" stroke-width="3"/>
    <text x="835" y="258" fill="#c00" font-size="6">5V</text>
    <text x="835" y="268" fill="#333" font-size="6">GND</text>
    <text x="835" y="278" fill="#886" font-size="6">SIG</text>
  </g>
  <text x="782" y="220" text-anchor="middle" fill="#1e293b" font-size="9" font-weight="bold">SG90 Servo (Exit PA9)</text>

  <!-- ══ MAX7219 DOT MATRIX (bottom-right) ══ -->
  <g filter="url(#sh2)">
    <rect x="680" y="385" width="185" height="120" rx="6" fill="url(#maxGrad)"/>
    <rect x="686" y="391" width="173" height="108" rx="4" fill="none" stroke="#6060af" stroke-width="1" stroke-dasharray="3,2"/>
    <!-- 8x8 dot matrix display -->
    <rect x="692" y="398" width="100" height="90" rx="3" fill="#111"/>
    <g fill="#ff4400" opacity="0.9">
      <circle cx="700" cy="406" r="3"/><circle cx="710" cy="406" r="3"/><circle cx="720" cy="406" r="3"/>
      <circle cx="730" cy="406" r="3"/><circle cx="740" cy="406" r="3"/><circle cx="750" cy="406" r="3"/>
      <circle cx="760" cy="406" r="3"/><circle cx="770" cy="406" r="3"/>
      <circle cx="700" cy="416" r="3" opacity="0.3"/><circle cx="710" cy="416" r="3"/><circle cx="720" cy="416" r="3" opacity="0.3"/>
      <circle cx="730" cy="416" r="3"/><circle cx="740" cy="416" r="3" opacity="0.3"/><circle cx="750" cy="416" r="3"/>
      <circle cx="760" cy="416" r="3" opacity="0.3"/><circle cx="770" cy="416" r="3"/>
      <circle cx="700" cy="426" r="3"/><circle cx="710" cy="426" r="3" opacity="0.3"/><circle cx="720" cy="426" r="3"/>
      <circle cx="730" cy="426" r="3" opacity="0.3"/><circle cx="740" cy="426" r="3"/><circle cx="750" cy="426" r="3" opacity="0.3"/>
      <circle cx="760" cy="426" r="3"/><circle cx="770" cy="426" r="3" opacity="0.3"/>
      <circle cx="700" cy="436" r="3" opacity="0.3"/><circle cx="710" cy="436" r="3"/><circle cx="720" cy="436" r="3" opacity="0.3"/>
      <circle cx="730" cy="436" r="3"/><circle cx="740" cy="436" r="3" opacity="0.3"/><circle cx="750" cy="436" r="3"/>
      <circle cx="760" cy="436" r="3" opacity="0.3"/><circle cx="770" cy="436" r="3"/>
      <circle cx="700" cy="446" r="3"/><circle cx="710" cy="446" r="3"/><circle cx="720" cy="446" r="3"/>
      <circle cx="730" cy="446" r="3"/><circle cx="740" cy="446" r="3"/><circle cx="750" cy="446" r="3"/>
      <circle cx="760" cy="446" r="3"/><circle cx="770" cy="446" r="3"/>
      <circle cx="700" cy="456" r="3" opacity="0.3"/><circle cx="710" cy="456" r="3" opacity="0.3"/>
      <circle cx="720" cy="456" r="3"/><circle cx="730" cy="456" r="3"/><circle cx="740" cy="456" r="3"/>
      <circle cx="750" cy="456" r="3"/><circle cx="760" cy="456" r="3" opacity="0.3"/><circle cx="770" cy="456" r="3" opacity="0.3"/>
      <circle cx="700" cy="466" r="3" opacity="0.3"/><circle cx="710" cy="466" r="3" opacity="0.3"/>
      <circle cx="720" cy="466" r="3" opacity="0.3"/><circle cx="730" cy="466" r="3"/><circle cx="740" cy="466" r="3"/>
      <circle cx="750" cy="466" r="3" opacity="0.3"/><circle cx="760" cy="466" r="3" opacity="0.3"/><circle cx="770" cy="466" r="3" opacity="0.3"/>
      <circle cx="700" cy="476" r="3" opacity="0.3"/><circle cx="710" cy="476" r="3" opacity="0.3"/>
      <circle cx="720" cy="476" r="3" opacity="0.3"/><circle cx="730" cy="476" r="3" opacity="0.3"/><circle cx="740" cy="476" r="3"/>
      <circle cx="750" cy="476" r="3" opacity="0.3"/><circle cx="760" cy="476" r="3" opacity="0.3"/><circle cx="770" cy="476" r="3" opacity="0.3"/>
    </g>
    <!-- MAX7219 IC -->
    <rect x="800" y="405" width="55" height="65" rx="2" fill="#111" stroke="#333" stroke-width="1.5"/>
    <text x="827" y="430" text-anchor="middle" fill="#888" font-size="7">MAX</text>
    <text x="827" y="442" text-anchor="middle" fill="#888" font-size="7">7219</text>
    <!-- Header pins -->
    <g fill="#c0a000">
      <rect x="694" y="486" width="7" height="12" rx="1"/><rect x="706" y="486" width="7" height="12" rx="1"/>
      <rect x="718" y="486" width="7" height="12" rx="1"/><rect x="730" y="486" width="7" height="12" rx="1"/>
      <rect x="742" y="486" width="7" height="12" rx="1"/>
    </g>
    <text x="697" y="508" fill="#c4b5fd" font-size="5.5" text-anchor="middle">VCC</text>
    <text x="709" y="508" fill="#c4b5fd" font-size="5.5" text-anchor="middle">GND</text>
    <text x="721" y="508" fill="#c4b5fd" font-size="5.5" text-anchor="middle">DIN</text>
    <text x="733" y="508" fill="#c4b5fd" font-size="5.5" text-anchor="middle">CS</text>
    <text x="745" y="508" fill="#c4b5fd" font-size="5.5" text-anchor="middle">CLK</text>
  </g>
  <text x="772" y="380" text-anchor="middle" fill="#1e293b" font-size="9" font-weight="bold">MAX7219 Dot-Matrix (SPI2)</text>

  <!-- ══ SLOT LEDs (bottom-left) ══ -->
  <!-- Slot 1 -->
  <ellipse cx="80" cy="430" rx="11" ry="15" fill="url(#ledGreen)" stroke="#008800" stroke-width="1.5" filter="url(#sh2)"/>
  <ellipse cx="80" cy="421" rx="9" ry="7" fill="#ccffcc" opacity="0.6"/>
  <rect x="76" y="444" width="3.5" height="18" fill="#c0a000"/><rect x="83" y="444" width="3.5" height="18" fill="#c0a000"/>
  <ellipse cx="110" cy="430" rx="11" ry="15" fill="url(#ledRed)" stroke="#880000" stroke-width="1.5" filter="url(#sh2)"/>
  <ellipse cx="110" cy="421" rx="9" ry="7" fill="#ffcccc" opacity="0.6"/>
  <rect x="106" y="444" width="3.5" height="18" fill="#c0a000"/><rect x="113" y="444" width="3.5" height="18" fill="#c0a000"/>
  <text x="95" y="472" text-anchor="middle" fill="#555" font-size="8">Slot 1</text>
  <text x="95" y="482" text-anchor="middle" fill="#555" font-size="7">PC4 / PC5</text>

  <!-- Slot 2 -->
  <ellipse cx="170" cy="430" rx="11" ry="15" fill="url(#ledGreen)" stroke="#008800" stroke-width="1.5" filter="url(#sh2)"/>
  <ellipse cx="170" cy="421" rx="9" ry="7" fill="#ccffcc" opacity="0.6"/>
  <rect x="166" y="444" width="3.5" height="18" fill="#c0a000"/><rect x="173" y="444" width="3.5" height="18" fill="#c0a000"/>
  <ellipse cx="200" cy="430" rx="11" ry="15" fill="url(#ledRed)" stroke="#880000" stroke-width="1.5" filter="url(#sh2)"/>
  <ellipse cx="200" cy="421" rx="9" ry="7" fill="#ffcccc" opacity="0.6"/>
  <rect x="196" y="444" width="3.5" height="18" fill="#c0a000"/><rect x="203" y="444" width="3.5" height="18" fill="#c0a000"/>
  <text x="185" y="472" text-anchor="middle" fill="#555" font-size="8">Slot 2</text>
  <text x="185" y="482" text-anchor="middle" fill="#555" font-size="7">PB13/PB14</text>

  <!-- Slot 3 -->
  <ellipse cx="255" cy="430" rx="11" ry="15" fill="url(#ledGreen)" stroke="#008800" stroke-width="1.5" filter="url(#sh2)"/>
  <ellipse cx="255" cy="421" rx="9" ry="7" fill="#ccffcc" opacity="0.6"/>
  <rect x="251" y="444" width="3.5" height="18" fill="#c0a000"/><rect x="258" y="444" width="3.5" height="18" fill="#c0a000"/>
  <ellipse cx="285" cy="430" rx="11" ry="15" fill="url(#ledRed)" stroke="#880000" stroke-width="1.5" filter="url(#sh2)"/>
  <ellipse cx="285" cy="421" rx="9" ry="7" fill="#ffcccc" opacity="0.6"/>
  <rect x="281" y="444" width="3.5" height="18" fill="#c0a000"/><rect x="288" y="444" width="3.5" height="18" fill="#c0a000"/>
  <text x="270" y="472" text-anchor="middle" fill="#555" font-size="8">Slot 3</text>
  <text x="270" y="482" text-anchor="middle" fill="#555" font-size="7">PB15/PD2</text>
  <text x="183" y="400" text-anchor="middle" fill="#1e293b" font-size="9" font-weight="bold">Slot Status LEDs (Green=Free, Red=Occupied)</text>

  <!-- ══ WIRES ══ -->
  <!-- Entry HC-SR04 TRIG/ECHO (blue) -->
  <polyline points="65,154 65,165 290,165 290,164 334,164" fill="none" stroke="#3b82f6" stroke-width="2.5"/>
  <polyline points="79,154 79,170 295,170 295,177 334,177" fill="none" stroke="#06b6d4" stroke-width="2.5"/>
  <!-- Exit HC-SR04 TRIG/ECHO (orange) -->
  <polyline points="65,309 65,330 285,330 285,190 334,190" fill="none" stroke="#f97316" stroke-width="2.5"/>
  <polyline points="79,309 79,335 290,335 290,203 334,203" fill="none" stroke="#fb923c" stroke-width="2.5"/>
  <!-- Servo 1 signal (yellow) -->
  <polyline points="830,127 855,127 855,155 640,155 640,216 334,216" fill="none" stroke="#eab308" stroke-width="2.5"/>
  <!-- Servo 2 signal (yellow dashed) -->
  <polyline points="830,277 860,277 860,160 645,160 645,229 334,229" fill="none" stroke="#ca8a04" stroke-width="2.5"/>
  <!-- MAX7219 SPI wires (purple) -->
  <polyline points="721,498 721,530 305,530 305,242 334,242" fill="none" stroke="#8b5cf6" stroke-width="2.5"/>
  <polyline points="733,498 733,536 310,536 310,255 334,255" fill="none" stroke="#7c3aed" stroke-width="2.5"/>
  <polyline points="745,498 745,542 315,542 315,268 334,268" fill="none" stroke="#6d28d9" stroke-width="2.5"/>
  <!-- LED wires -->
  <polyline points="79,444 79,385 585,385 585,164 584,164" fill="none" stroke="#22c55e" stroke-width="2"/>
  <polyline points="109,444 109,390 589,390 589,177 584,177" fill="none" stroke="#ef4444" stroke-width="2"/>
  <polyline points="169,444 169,395 593,395 593,190 584,190" fill="none" stroke="#22c55e" stroke-width="2"/>
  <polyline points="199,444 199,400 597,400 597,203 584,203" fill="none" stroke="#ef4444" stroke-width="2"/>
  <polyline points="254,444 254,405 601,405 601,216 584,216" fill="none" stroke="#22c55e" stroke-width="2"/>
  <polyline points="284,444 284,410 605,410 605,229 584,229" fill="none" stroke="#ef4444" stroke-width="2"/>
  <!-- Junction dots -->
  <g fill="#3b82f6"><circle cx="334" cy="164" r="3.5"/></g>
  <g fill="#06b6d4"><circle cx="334" cy="177" r="3.5"/></g>
  <g fill="#f97316"><circle cx="334" cy="190" r="3.5"/></g>
  <g fill="#fb923c"><circle cx="334" cy="203" r="3.5"/></g>
  <g fill="#eab308"><circle cx="334" cy="216" r="3.5"/></g>
  <g fill="#ca8a04"><circle cx="334" cy="229" r="3.5"/></g>
  <g fill="#8b5cf6"><circle cx="334" cy="242" r="3.5"/></g>
  <g fill="#7c3aed"><circle cx="334" cy="255" r="3.5"/></g>
  <g fill="#6d28d9"><circle cx="334" cy="268" r="3.5"/></g>

  <!-- ══ LEGEND ══ -->
  <rect x="40" y="550" width="600" height="80" rx="6" fill="white" fill-opacity="0.85" stroke="#ddd" stroke-width="1"/>
  <text x="340" y="566" text-anchor="middle" fill="#1e293b" font-size="9" font-weight="bold">Wire Legend</text>
  <g font-size="8" fill="#374151">
    <line x1="55" y1="578" x2="90" y2="578" stroke="#3b82f6" stroke-width="2.5"/><text x="95" y="582">TRIG — Entry HC-SR04 (PA0)</text>
    <line x1="55" y1="592" x2="90" y2="592" stroke="#06b6d4" stroke-width="2.5"/><text x="95" y="596">ECHO — Entry HC-SR04 (PA1)</text>
    <line x1="55" y1="606" x2="90" y2="606" stroke="#f97316" stroke-width="2.5"/><text x="95" y="610">TRIG — Exit HC-SR04 (PA4)</text>
    <line x1="290" y1="578" x2="325" y2="578" stroke="#eab308" stroke-width="2.5"/><text x="330" y="582">PWM — Servo Entry/Exit (PA8/PA9)</text>
    <line x1="290" y1="592" x2="325" y2="592" stroke="#8b5cf6" stroke-width="2.5"/><text x="330" y="596">SPI2 — MAX7219 (DIN/CS/CLK)</text>
    <line x1="290" y1="606" x2="325" y2="606" stroke="#22c55e" stroke-width="2.5"/><text x="330" y="610">GPIO — Green/Red LEDs per slot + 220Ω resistors</text>
  </g>
</svg>
